<?xml version="1.0" encoding="UTF-8"?>
<!DOCTYPE svg PUBLIC "-//W3C//DTD SVG 1.1//EN" "http://www.w3.org/Graphics/SVG/1.1/DTD/svg11.dtd">
<svg xmlns="http://www.w3.org/2000/svg" version="1.1" width="468px" height="413px" style="shape-rendering:geometricPrecision; text-rendering:geometricPrecision; image-rendering:optimizeQuality; fill-rule:evenodd; clip-rule:evenodd" xmlns:xlink="http://www.w3.org/1999/xlink">
<g><path style="opacity:0.362" fill="#2b2b2b" d="M 434.5,30.5 C 440.31,29.5104 446.31,29.1771 452.5,29.5C 452.277,33.1621 451.277,36.4954 449.5,39.5C 449.517,37.4352 449.85,35.4352 450.5,33.5C 450.5,32.5 450.5,31.5 450.5,30.5C 447.833,30.5 445.167,30.5 442.5,30.5C 439.833,30.5 437.167,30.5 434.5,30.5 Z"/></g>
<g><path style="opacity:0.38" fill="#252525" d="M 71.5,29.5 C 65.4855,31.7852 59.1522,33.1185 52.5,33.5C 58.6151,31.6429 64.9485,30.3096 71.5,29.5 Z"/></g>
<g><path style="opacity:0.235" fill="#232323" d="M 433.5,30.5 C 424.842,31.5945 416.176,32.5945 407.5,33.5C 397.5,33.8333 387.5,34.1667 377.5,34.5C 395.97,32.5124 414.637,31.179 433.5,30.5 Z"/></g>
<g><path style="opacity:0.921" fill="#c1c1c1" d="M 433.5,30.5 C 433.833,30.5 434.167,30.5 434.5,30.5C 437.167,30.5 439.833,30.5 442.5,30.5C 442.082,31.2216 441.416,31.7216 440.5,32C 429.521,33.0077 418.521,33.5077 407.5,33.5C 416.176,32.5945 424.842,31.5945 433.5,30.5 Z"/></g>
<g><path style="opacity:1" fill="#efefef" d="M 442.5,30.5 C 445.167,30.5 447.833,30.5 450.5,30.5C 450.5,31.5 450.5,32.5 450.5,33.5C 449.448,33.3505 448.448,33.5172 447.5,34C 433.937,46.4032 420.27,58.5699 406.5,70.5C 403.881,70.7683 401.381,70.435 399,69.5C 399.387,67.2261 399.554,65.0595 399.5,63C 398.5,61 397.5,61 396.5,63C 393.518,63.498 390.518,63.6646 387.5,63.5C 387.657,62.1266 387.49,60.7932 387,59.5C 383.525,57.7841 383.025,55.6174 385.5,53C 381.188,50.9151 376.521,50.4151 371.5,51.5C 371.5,50.1667 371.5,48.8333 371.5,47.5C 366.918,47.9458 362.585,47.2792 358.5,45.5C 357.558,45.6082 356.725,45.9415 356,46.5C 354.684,43.3668 353.184,40.3668 351.5,37.5C 360.254,36.4028 368.921,35.4028 377.5,34.5C 387.5,34.1667 397.5,33.8333 407.5,33.5C 418.521,33.5077 429.521,33.0077 440.5,32C 441.416,31.7216 442.082,31.2216 442.5,30.5 Z"/></g>
<g><path style="opacity:0.049" fill="#1c1c1c" d="M 37.5,36.5 C 33.047,38.1993 28.3803,39.5326 23.5,40.5C 22.8333,40.5 22.1667,40.5 21.5,40.5C 26.4865,38.2966 31.8198,36.9633 37.5,36.5 Z"/></g>
<g><path style="opacity:1" fill="#dcdddf" d="M 85.5,81.5 C 81.7375,83.4127 78.0709,85.5794 74.5,88C 73.5,88.6667 72.5,88.6667 71.5,88C 55.4799,73.491 39.4799,58.6576 23.5,43.5C 22.4376,42.5754 22.4376,41.5754 23.5,40.5C 28.3803,39.5326 33.047,38.1993 37.5,36.5C 42.2907,35.058 47.2907,34.058 52.5,33.5C 59.1522,33.1185 65.4855,31.7852 71.5,29.5C 73.9052,28.2318 76.5718,27.5651 79.5,27.5C 81.8333,27.5 84.1667,27.5 86.5,27.5C 90.552,27.1118 94.552,26.4451 98.5,25.5C 99.8333,26.1667 101.167,26.8333 102.5,27.5C 103.386,26.675 103.719,25.675 103.5,24.5C 105.698,24.8799 107.365,24.2132 108.5,22.5C 111.273,21.3428 114.273,20.6761 117.5,20.5C 126.619,19.8049 135.619,18.3049 144.5,16C 145.056,15.6174 145.389,15.1174 145.5,14.5C 145.833,14.5 146.167,14.5 146.5,14.5C 153.875,13.6597 161.209,12.4931 168.5,11C 169.056,10.6174 169.389,10.1174 169.5,9.5C 173.163,9.04822 176.83,8.54822 180.5,8C 181.056,7.61742 181.389,7.11742 181.5,6.5C 182.167,6.5 182.833,6.5 183.5,6.5C 186.176,5.99194 188.843,5.82527 191.5,6C 155.753,30.5801 120.419,55.7467 85.5,81.5 Z"/></g>
<g><path style="opacity:0.118" fill="#191919" d="M 377.5,34.5 C 368.921,35.4028 360.254,36.4028 351.5,37.5C 347.833,37.5 344.167,37.5 340.5,37.5C 329.628,37.2988 318.961,37.9654 308.5,39.5C 303.138,39.4724 297.805,39.8058 292.5,40.5C 291.167,40.5 289.833,40.5 288.5,40.5C 286.744,41.5521 286.077,43.2188 286.5,45.5C 284.595,43.951 284.261,42.1176 285.5,40C 288.753,38.9635 292.086,38.2969 295.5,38C 322.863,36.0314 350.196,34.8647 377.5,34.5 Z"/></g>
<g><path style="opacity:0.897" fill="#a4a4a4" d="M 340.5,37.5 C 334.021,38.5979 327.354,39.2646 320.5,39.5C 316.5,39.5 312.5,39.5 308.5,39.5C 318.961,37.9654 329.628,37.2988 340.5,37.5 Z"/></g>
<g><path style="opacity:1" fill="#e9e9e9" d="M 340.5,37.5 C 344.167,37.5 347.833,37.5 351.5,37.5C 353.184,40.3668 354.684,43.3668 356,46.5C 356.725,45.9415 357.558,45.6082 358.5,45.5C 362.585,47.2792 366.918,47.9458 371.5,47.5C 371.5,48.8333 371.5,50.1667 371.5,51.5C 376.521,50.4151 381.188,50.9151 385.5,53C 383.025,55.6174 383.525,57.7841 387,59.5C 387.49,60.7932 387.657,62.1266 387.5,63.5C 390.518,63.6646 393.518,63.498 396.5,63C 397.5,61 398.5,61 399.5,63C 399.554,65.0595 399.387,67.2261 399,69.5C 401.381,70.435 403.881,70.7683 406.5,70.5C 405.167,72.1667 403.833,73.8333 402.5,75.5C 396.167,80.8333 389.833,86.1667 383.5,91.5C 381.983,91.4894 380.816,90.8228 380,89.5C 379.577,90.9561 378.744,91.4561 377.5,91C 378.337,89.9887 378.67,88.8221 378.5,87.5C 377.022,87.238 375.689,87.5713 374.5,88.5C 375.855,89.6753 375.688,90.6753 374,91.5C 372.184,90.6705 370.351,89.8372 368.5,89C 369.672,88.5814 370.672,87.9147 371.5,87C 370.299,86.0975 369.465,84.9308 369,83.5C 367.333,82.1667 365.667,82.1667 364,83.5C 363.097,82.2986 361.931,81.4652 360.5,81C 361.672,80.5814 362.672,79.9147 363.5,79C 362.257,77.8455 361.257,76.5122 360.5,75C 358.888,74.2797 357.388,74.4464 356,75.5C 355.51,74.2068 355.343,72.8734 355.5,71.5C 352.833,71.5 350.167,71.5 347.5,71.5C 347.5,68.5 347.5,65.5 347.5,62.5C 342.167,62.8333 336.833,63.1667 331.5,63.5C 331.5,60.8333 331.5,58.1667 331.5,55.5C 328.289,55.988 325.456,55.3213 323,53.5C 322.311,54.3567 321.478,55.0233 320.5,55.5C 318.142,53.9757 316.309,51.9757 315,49.5C 312.756,51.9938 310.423,51.9938 308,49.5C 306.612,50.5536 305.112,50.7203 303.5,50C 305.708,47.7374 305.041,46.0708 301.5,45C 302.784,44.3162 303.951,44.4829 305,45.5C 305.688,44.6683 305.521,44.0016 304.5,43.5C 301.711,43.0772 299.044,43.0772 296.5,43.5C 298.059,41.8693 300.059,41.036 302.5,41C 308.681,40.8276 314.681,40.3276 320.5,39.5C 327.354,39.2646 334.021,38.5979 340.5,37.5 Z"/></g>
<g><path style="opacity:1" fill="#e2e2e2" d="M 308.5,39.5 C 312.5,39.5 316.5,39.5 320.5,39.5C 314.681,40.3276 308.681,40.8276 302.5,41C 300.059,41.036 298.059,41.8693 296.5,43.5C 299.044,43.0772 301.711,43.0772 304.5,43.5C 305.521,44.0016 305.688,44.6683 305,45.5C 303.951,44.4829 302.784,44.3162 301.5,45C 305.041,46.0708 305.708,47.7374 303.5,50C 305.112,50.7203 306.612,50.5536 308,49.5C 310.423,51.9938 312.756,51.9938 315,49.5C 316.309,51.9757 318.142,53.9757 320.5,55.5C 321.478,55.0233 322.311,54.3567 323,53.5C 325.456,55.3213 328.289,55.988 331.5,55.5C 331.5,58.1667 331.5,60.8333 331.5,63.5C 336.833,63.1667 342.167,62.8333 347.5,62.5C 347.5,65.5 347.5,68.5 347.5,71.5C 350.167,71.5 352.833,71.5 355.5,71.5C 355.343,72.8734 355.51,74.2068 356,75.5C 357.388,74.4464 358.888,74.2797 360.5,75C 361.257,76.5122 362.257,77.8455 363.5,79C 362.672,79.9147 361.672,80.5814 360.5,81C 361.931,81.4652 363.097,82.2986 364,83.5C 365.667,82.1667 367.333,82.1667 369,83.5C 369.465,84.9308 370.299,86.0975 371.5,87C 370.672,87.9147 369.672,88.5814 368.5,89C 370.351,89.8372 372.184,90.6705 374,91.5C 375.688,90.6753 375.855,89.6753 374.5,88.5C 375.689,87.5713 377.022,87.238 378.5,87.5C 378.67,88.8221 378.337,89.9887 377.5,91C 378.744,91.4561 379.577,90.9561 380,89.5C 380.816,90.8228 381.983,91.4894 383.5,91.5C 380.306,94.2721 377.306,97.2721 374.5,100.5C 363.385,109.114 353.051,118.614 343.5,129C 342.207,129.49 340.873,129.657 339.5,129.5C 333.556,118.898 327.222,108.564 320.5,98.5C 315.735,89.9604 310.735,81.6271 305.5,73.5C 300.814,64.7905 296.147,56.1239 291.5,47.5C 289.937,44.8684 290.27,42.5351 292.5,40.5C 297.805,39.8058 303.138,39.4724 308.5,39.5 Z"/></g>
<g><path style="opacity:0.847" fill="#999999" d="M 288.5,40.5 C 289.833,40.5 291.167,40.5 292.5,40.5C 290.27,42.5351 289.937,44.8684 291.5,47.5C 287.996,46.1649 286.996,43.8316 288.5,40.5 Z"/></g>
<g><path style="opacity:0.455" fill="#323333" d="M 448.5,41.5 C 448.02,44.4432 447.02,47.1098 445.5,49.5C 445.345,46.284 446.345,43.6174 448.5,41.5 Z"/></g>
<g><path style="opacity:0.345" fill="#3e3e3e" d="M 20.5,42.5 C 20.4003,45.1085 21.0669,47.4418 22.5,49.5C 20.8583,47.9192 18.8583,47.2525 16.5,47.5C 16.774,45.0194 18.1073,43.3527 20.5,42.5 Z"/></g>
<g><path style="opacity:0.122" fill="#1d1d1d" d="M 21.5,40.5 C 21.6716,41.4916 21.3382,42.1583 20.5,42.5C 18.1073,43.3527 16.774,45.0194 16.5,47.5C 18.8583,47.2525 20.8583,47.9192 22.5,49.5C 34.4109,89.8087 45.0775,130.475 54.5,171.5C 44.7158,135.703 35.2158,99.7034 26,63.5C 24.713,58.9272 22.8797,54.5938 20.5,50.5C 17.4273,49.9744 15.0939,48.4744 13.5,46C 15.5814,43.448 18.2481,41.6147 21.5,40.5 Z"/></g>
<g><path style="opacity:0.631" fill="#565656" d="M 165.5,51.5 C 163.828,54.2132 162.162,56.8798 160.5,59.5C 160.701,55.8698 162.368,53.2031 165.5,51.5 Z"/></g>
<g><path style="opacity:0.184" fill="#1e1f1f" d="M 445.5,49.5 C 443.686,55.7795 441.353,61.7795 438.5,67.5C 439.784,60.9571 442.117,54.9571 445.5,49.5 Z"/></g>
<g><path style="opacity:1" fill="#acadb0" d="M 165.5,51.5 C 162.368,53.2031 160.701,55.8698 160.5,59.5C 156.595,64.9681 152.928,70.6347 149.5,76.5C 147.916,77.3818 146.249,78.2152 144.5,79C 144.833,79.3333 145.167,79.6667 145.5,80C 143.144,81.9533 141.644,84.4533 141,87.5C 138.535,89.4253 135.868,89.4253 133,87.5C 132.439,88.0219 131.772,88.3552 131,88.5C 125.999,86.8721 120.833,86.0388 115.5,86C 118.277,83.8266 118.11,83.3266 115,84.5C 109.312,82.9816 103.478,82.1482 97.5,82C 95.3415,81.088 93.1748,80.2546 91,79.5C 89.5993,81.1922 87.7659,81.8588 85.5,81.5C 120.419,55.7467 155.753,30.5801 191.5,6C 188.843,5.82527 186.176,5.99194 183.5,6.5C 186.171,4.88195 189.171,4.21528 192.5,4.5C 192.509,6.30839 192.009,7.97506 191,9.5C 181.737,23.0237 173.237,37.0237 165.5,51.5 Z"/></g>
<g><path style="opacity:1" fill="#c1c2c4" d="M 450.5,33.5 C 449.85,35.4352 449.517,37.4352 449.5,39.5C 449.672,40.4916 449.338,41.1583 448.5,41.5C 446.345,43.6174 445.345,46.284 445.5,49.5C 442.117,54.9571 439.784,60.9571 438.5,67.5C 436.552,69.3204 435.552,71.6538 435.5,74.5C 433.345,76.6174 432.345,79.284 432.5,82.5C 430.787,83.6354 430.12,85.302 430.5,87.5C 429.069,88.7804 428.402,90.4471 428.5,92.5C 424.785,98.6183 422.118,105.285 420.5,112.5C 419.069,113.78 418.402,115.447 418.5,117.5C 416.707,119.426 415.707,121.759 415.5,124.5C 413.733,126.792 412.733,129.458 412.5,132.5C 410.787,133.635 410.12,135.302 410.5,137.5C 406.728,143.713 404.061,150.38 402.5,157.5C 401.167,159.5 399.833,161.5 398.5,163.5C 398.047,162.542 397.381,161.708 396.5,161C 398.904,159.597 400.571,157.597 401.5,155C 401.15,153.743 400.483,153.409 399.5,154C 398.664,158.168 397.664,158.335 396.5,154.5C 397.4,152.068 398.066,149.568 398.5,147C 397.261,144.283 396.427,141.449 396,138.5C 395.955,141.334 395.121,143.834 393.5,146C 393.833,146.333 394.167,146.667 394.5,147C 392.167,148 389.833,149 387.5,150C 388.167,150.333 388.833,150.667 389.5,151C 388.289,152.113 388.289,153.28 389.5,154.5C 388.965,156.271 388.131,156.604 387,155.5C 385.794,163.739 384.794,164.073 384,156.5C 382.937,161.289 382.104,166.122 381.5,171C 382.684,172.548 382.517,174.048 381,175.5C 380.667,173.5 380.333,171.5 380,169.5C 377.711,173.002 376.711,176.669 377,180.5C 376.667,178.833 376.333,177.167 376,175.5C 374.339,179.108 374.005,182.775 375,186.5C 372.332,189.162 369.165,190.996 365.5,192C 368.043,194.351 367.377,195.517 363.5,195.5C 363.5,198.167 363.5,200.833 363.5,203.5C 362.178,203.33 361.011,203.663 360,204.5C 360,206.5 360,208.5 360,210.5C 358.644,211.38 357.144,211.714 355.5,211.5C 356.554,216.582 355.054,220.582 351,223.5C 350.503,226.146 350.336,228.813 350.5,231.5C 349.5,231.5 348.5,231.5 347.5,231.5C 347.649,232.552 347.483,233.552 347,234.5C 343.921,235.676 342.755,237.676 343.5,240.5C 341.973,245.555 340.806,245.222 340,239.5C 339.223,242.429 339.39,245.263 340.5,248C 338.5,250.333 336.5,252.667 334.5,255C 334.833,255.333 335.167,255.667 335.5,256C 330.578,257.732 329.244,260.899 331.5,265.5C 330.448,265.351 329.448,265.517 328.5,266C 327.167,266.667 327.167,267.333 328.5,268C 327.335,269.084 326.002,269.917 324.5,270.5C 322.604,276.812 320.771,283.145 319,289.5C 318.667,288.833 318.333,288.167 318,287.5C 316.983,289.376 316.149,291.376 315.5,293.5C 313.395,294.899 311.562,296.566 310,298.5C 311.876,304.657 310.209,309.657 305,313.5C 305,314.833 305,316.167 305,317.5C 303.052,318.109 301.218,318.776 299.5,319.5C 297.447,308.738 296.114,297.738 295.5,286.5C 295.392,284.486 296.058,282.82 297.5,281.5C 298.573,280.342 299.739,280.342 301,281.5C 302.054,280.518 302.554,279.351 302.5,278C 308.093,277.023 310.093,273.856 308.5,268.5C 309.313,264.469 311.646,262.136 315.5,261.5C 315.261,259.533 315.594,257.699 316.5,256C 315.5,255.667 314.5,255.333 313.5,255C 315.5,254.667 317.5,254.333 319.5,254C 320.641,253.259 320.641,252.425 319.5,251.5C 320.665,250.416 321.998,249.583 323.5,249C 320.053,246.364 319.553,243.197 322,239.5C 322.807,243.449 323.307,243.449 323.5,239.5C 324.5,239.5 325.5,239.5 326.5,239.5C 326.367,235.108 327.867,231.441 331,228.5C 331.497,226.19 331.663,223.857 331.5,221.5C 332.873,221.657 334.207,221.49 335.5,221C 338.964,217.177 340.297,212.677 339.5,207.5C 340.873,207.657 342.207,207.49 343.5,207C 342.273,205.413 342.606,204.079 344.5,203C 345.449,202.383 346.282,202.549 347,203.5C 348.016,197.963 349.516,192.629 351.5,187.5C 352.833,187.5 354.167,187.5 355.5,187.5C 355.5,184.5 355.5,181.5 355.5,178.5C 359.274,178.516 360.274,176.85 358.5,173.5C 359.908,172.757 361.241,171.923 362.5,171C 361.542,169.853 361.875,168.853 363.5,168C 364.448,167.517 365.448,167.351 366.5,167.5C 366.336,164.813 366.503,162.146 367,159.5C 369.384,157.121 370.884,154.287 371.5,151C 370.692,150.692 370.025,150.192 369.5,149.5C 371.045,148.548 372.712,148.215 374.5,148.5C 374.336,145.813 374.503,143.146 375,140.5C 375.741,139.359 376.575,139.359 377.5,140.5C 378.429,139.311 378.762,137.978 378.5,136.5C 379.833,136.5 381.167,136.5 382.5,136.5C 380.813,131.967 382.48,129.134 387.5,128C 383.544,126.886 383.544,126.053 387.5,125.5C 387.201,123.396 387.534,121.396 388.5,119.5C 390.306,116.569 392.139,113.569 394,110.5C 394.667,107.5 394.667,104.5 394,101.5C 392.795,100.929 391.628,100.262 390.5,99.5C 395.202,96.5548 397.536,92.5548 397.5,87.5C 399.167,86.3333 400.833,85.1667 402.5,84C 397.379,83.4232 397.379,82.4232 402.5,81C 401.289,80.1072 401.289,79.2739 402.5,78.5C 404.064,79.186 405.731,79.0194 407.5,78C 406.833,77.3333 406.167,76.6667 405.5,76C 406.951,76.2626 408.284,76.0959 409.5,75.5C 409.113,74.2801 408.28,73.6135 407,73.5C 405.594,74.4138 404.094,75.0805 402.5,75.5C 403.833,73.8333 405.167,72.1667 406.5,70.5C 420.27,58.5699 433.937,46.4032 447.5,34C 448.448,33.5172 449.448,33.3505 450.5,33.5 Z"/></g>
<g><path style="opacity:1" fill="#9d9ea1" d="M 21.5,40.5 C 22.1667,40.5 22.8333,40.5 23.5,40.5C 22.4376,41.5754 22.4376,42.5754 23.5,43.5C 39.4799,58.6576 55.4799,73.491 71.5,88C 72.5,88.6667 73.5,88.6667 74.5,88C 78.0709,85.5794 81.7375,83.4127 85.5,81.5C 87.7659,81.8588 89.5993,81.1922 91,79.5C 93.1748,80.2546 95.3415,81.088 97.5,82C 103.478,82.1482 109.312,82.9816 115,84.5C 118.11,83.3266 118.277,83.8266 115.5,86C 120.833,86.0388 125.999,86.8721 131,88.5C 131.772,88.3552 132.439,88.0219 133,87.5C 135.868,89.4253 138.535,89.4253 141,87.5C 141.644,84.4533 143.144,81.9533 145.5,80C 145.167,79.6667 144.833,79.3333 144.5,79C 146.249,78.2152 147.916,77.3818 149.5,76.5C 145.556,82.951 141.389,89.2843 137,95.5C 136.24,101.721 137.073,107.721 139.5,113.5C 138.883,113.389 138.383,113.056 138,112.5C 136.85,108.888 136.017,105.222 135.5,101.5C 131.678,99.8979 127.678,98.7313 123.5,98C 107.385,95.8135 91.3849,93.3135 75.5,90.5C 74.3509,90.7911 73.6842,91.6244 73.5,93C 74.8664,107.636 77.033,122.136 80,136.5C 87.3594,203.721 95.8594,270.721 105.5,337.5C 107.05,347.469 108.384,357.469 109.5,367.5C 109.761,372.111 110.928,376.444 113,380.5C 113.888,374.844 114.721,369.177 115.5,363.5C 118.279,358.277 120.779,352.943 123,347.5C 123.693,341.759 125.36,336.426 128,331.5C 131.561,328.356 133.394,324.356 133.5,319.5C 134.5,319.5 135.5,319.5 136.5,319.5C 136.18,316.102 136.513,312.768 137.5,309.5C 140.109,305.944 141.942,301.944 143,297.5C 141.29,291.856 142.624,287.19 147,283.5C 147.902,281.073 148.736,278.74 149.5,276.5C 148.133,289.104 144.633,301.104 139,312.5C 134.516,326.767 130.182,341.1 126,355.5C 125.333,356.167 124.667,356.833 124,357.5C 123.413,361.928 122.413,366.261 121,370.5C 117.309,373.52 115.642,377.52 116,382.5C 114.667,384.167 113.333,385.833 112,387.5C 111.722,386.584 111.222,385.918 110.5,385.5C 92.449,315.29 74.1157,245.29 55.5,175.5C 54.5655,174.432 54.2322,173.099 54.5,171.5C 45.0775,130.475 34.4109,89.8087 22.5,49.5C 21.0669,47.4418 20.4003,45.1085 20.5,42.5C 21.3382,42.1583 21.6716,41.4916 21.5,40.5 Z"/></g>
<g><path style="opacity:0.067" fill="#232323" d="M 288.5,40.5 C 286.996,43.8316 287.996,46.1649 291.5,47.5C 296.147,56.1239 300.814,64.7905 305.5,73.5C 304.872,82.1728 304.206,90.8394 303.5,99.5C 301.799,103.972 300.465,108.639 299.5,113.5C 297.833,117.5 296.167,121.5 294.5,125.5C 295.833,119.833 297.167,114.167 298.5,108.5C 299.348,103.774 300.515,99.1076 302,94.5C 302.939,87.5115 303.272,80.5115 303,73.5C 297.741,63.9744 292.241,54.6411 286.5,45.5C 286.077,43.2188 286.744,41.5521 288.5,40.5 Z"/></g>
<g><path style="opacity:0.188" fill="#252526" d="M 438.5,67.5 C 438.293,70.2406 437.293,72.5739 435.5,74.5C 435.552,71.6538 436.552,69.3204 438.5,67.5 Z"/></g>
<g><path style="opacity:0.514" fill="#343535" d="M 435.5,74.5 C 435.267,77.5418 434.267,80.2084 432.5,82.5C 432.345,79.284 433.345,76.6174 435.5,74.5 Z"/></g>
<g><path style="opacity:0.392" fill="#2e2e2f" d="M 432.5,82.5 C 432.598,84.5529 431.931,86.2196 430.5,87.5C 430.12,85.302 430.787,83.6354 432.5,82.5 Z"/></g>
<g><path style="opacity:0.169" fill="#19191a" d="M 430.5,87.5 C 430.598,89.5529 429.931,91.2196 428.5,92.5C 428.402,90.4471 429.069,88.7804 430.5,87.5 Z"/></g>
<g><path style="opacity:1" fill="#717374" d="M 305.5,73.5 C 310.735,81.6271 315.735,89.9604 320.5,98.5C 321.218,100.137 321.384,101.803 321,103.5C 318.867,101.862 316.367,101.029 313.5,101C 310.556,97.1187 307.223,96.6187 303.5,99.5C 304.206,90.8394 304.872,82.1728 305.5,73.5 Z"/></g>
<g><path style="opacity:1" fill="#b5b6b8" d="M 315.5,217.5 C 319.951,201.476 324.618,185.476 329.5,169.5C 332.063,162.517 334.563,155.517 337,148.5C 337.497,146.19 337.663,143.857 337.5,141.5C 339.074,139.898 339.741,137.898 339.5,135.5C 340.641,133.451 340.641,131.451 339.5,129.5C 340.873,129.657 342.207,129.49 343.5,129C 353.051,118.614 363.385,109.114 374.5,100.5C 376.436,99.741 378.269,98.741 380,97.5C 380.5,97.8333 381,98.1667 381.5,98.5C 380.624,99.2508 379.624,99.7508 378.5,100C 379.978,102.057 381.978,103.39 384.5,104C 383.773,105.399 383.273,106.899 383,108.5C 379.322,111.256 375.322,113.256 371,114.5C 370.667,118.5 370.333,122.5 370,126.5C 368.984,127.634 368.317,127.301 368,125.5C 366.312,126.325 366.145,127.325 367.5,128.5C 363.368,131.732 360.701,135.898 359.5,141C 361.835,144.482 360.501,145.982 355.5,145.5C 355.662,147.527 355.495,149.527 355,151.5C 354.333,150.833 353.667,150.167 353,149.5C 352,152.5 351,155.5 350,158.5C 348.844,157.007 348.01,157.174 347.5,159C 350.327,162.746 349.327,165.246 344.5,166.5C 345.376,167.251 346.376,167.751 347.5,168C 345.956,168.29 344.623,168.956 343.5,170C 345.301,170.317 345.634,170.984 344.5,172C 342.744,172.202 341.078,172.702 339.5,173.5C 340.025,174.192 340.692,174.692 341.5,175C 340.299,175.903 339.465,177.069 339,178.5C 338.612,177.572 337.945,176.905 337,176.5C 333.547,180.081 331.713,184.414 331.5,189.5C 332.36,191.272 333.693,192.605 335.5,193.5C 332.291,195.265 329.291,197.265 326.5,199.5C 325.353,199.182 324.519,198.516 324,197.5C 323.667,202.167 323.333,206.833 323,211.5C 320.878,212.22 320.378,213.387 321.5,215C 320.256,215.456 319.423,214.956 319,213.5C 318.051,215.093 316.885,216.426 315.5,217.5 Z"/></g>
<g><path style="opacity:0.129" fill="#202121" d="M 428.5,92.5 C 426.403,99.4697 423.737,106.136 420.5,112.5C 422.118,105.285 424.785,98.6183 428.5,92.5 Z"/></g>
<g><path style="opacity:1" fill="#c2c3c5" d="M 75.5,90.5 C 77.4671,96.3084 81.1337,100.808 86.5,104C 88.7135,104.626 90.8801,104.459 93,103.5C 97.5675,105.597 102.234,106.264 107,105.5C 112.295,107.52 117.628,109.186 123,110.5C 125.563,110.659 128.23,110.325 131,109.5C 133.056,110.583 134.389,112.25 135,114.5C 136.156,113.007 136.99,113.174 137.5,115C 139.177,117.547 139.844,120.38 139.5,123.5C 128.055,122.447 116.555,120.447 105,117.5C 102.538,118.159 100.038,118.493 97.5,118.5C 105.19,131.724 114.357,144.058 125,155.5C 137.016,172.87 149.516,189.87 162.5,206.5C 160.239,207.409 158.072,207.742 156,207.5C 154.101,211.621 153.268,215.954 153.5,220.5C 152.178,220.33 151.011,220.663 150,221.5C 148.201,230.395 145.868,239.062 143,247.5C 142.667,246.167 142.333,244.833 142,243.5C 141.005,248.453 140.338,253.453 140,258.5C 139.667,258.833 139.333,259.167 139,259.5C 138.692,258.692 138.192,258.025 137.5,257.5C 136.276,259.828 136.276,262.161 137.5,264.5C 136.372,265.262 135.205,265.929 134,266.5C 133.485,270.577 132.651,274.577 131.5,278.5C 131.709,279.086 132.043,279.586 132.5,280C 129.254,281.788 127.587,284.621 127.5,288.5C 125.236,289.538 124.902,291.038 126.5,293C 124.456,296.126 122.789,299.459 121.5,303C 121.737,305.288 121.737,307.788 121.5,310.5C 120.178,310.33 119.011,310.663 118,311.5C 117.667,314.5 117.333,317.5 117,320.5C 115.229,321.304 113.729,322.471 112.5,324C 114.281,330.437 112.948,335.603 108.5,339.5C 107.735,338.388 106.735,337.721 105.5,337.5C 95.8594,270.721 87.3594,203.721 80,136.5C 77.033,122.136 74.8664,107.636 73.5,93C 73.6842,91.6244 74.3509,90.7911 75.5,90.5 Z"/></g>
<g><path style="opacity:1" fill="#b6b7b9" d="M 75.5,90.5 C 91.3849,93.3135 107.385,95.8135 123.5,98C 127.678,98.7313 131.678,99.8979 135.5,101.5C 136.017,105.222 136.85,108.888 138,112.5C 138.383,113.056 138.883,113.389 139.5,113.5C 141.7,120.767 143.7,128.101 145.5,135.5C 145.41,138.152 146.076,140.485 147.5,142.5C 149.408,146.903 150.741,151.57 151.5,156.5C 149.094,152.017 146.927,147.35 145,142.5C 144.667,142.833 144.333,143.167 144,143.5C 144.064,136.295 142.564,129.629 139.5,123.5C 139.844,120.38 139.177,117.547 137.5,115C 136.99,113.174 136.156,113.007 135,114.5C 134.389,112.25 133.056,110.583 131,109.5C 128.23,110.325 125.563,110.659 123,110.5C 117.628,109.186 112.295,107.52 107,105.5C 102.234,106.264 97.5675,105.597 93,103.5C 90.8801,104.459 88.7135,104.626 86.5,104C 81.1337,100.808 77.4671,96.3084 75.5,90.5 Z"/></g>
<g><path style="opacity:1" fill="#bbbcbe" d="M 297.5,281.5 C 303.708,260.306 309.708,238.972 315.5,217.5C 316.885,216.426 318.051,215.093 319,213.5C 319.423,214.956 320.256,215.456 321.5,215C 320.378,213.387 320.878,212.22 323,211.5C 323.333,206.833 323.667,202.167 324,197.5C 324.519,198.516 325.353,199.182 326.5,199.5C 329.291,197.265 332.291,195.265 335.5,193.5C 333.693,192.605 332.36,191.272 331.5,189.5C 331.713,184.414 333.547,180.081 337,176.5C 337.945,176.905 338.612,177.572 339,178.5C 339.465,177.069 340.299,175.903 341.5,175C 340.692,174.692 340.025,174.192 339.5,173.5C 341.078,172.702 342.744,172.202 344.5,172C 345.634,170.984 345.301,170.317 343.5,170C 344.623,168.956 345.956,168.29 347.5,168C 346.376,167.751 345.376,167.251 344.5,166.5C 349.327,165.246 350.327,162.746 347.5,159C 348.01,157.174 348.844,157.007 350,158.5C 351,155.5 352,152.5 353,149.5C 353.667,150.167 354.333,150.833 355,151.5C 355.495,149.527 355.662,147.527 355.5,145.5C 360.501,145.982 361.835,144.482 359.5,141C 360.701,135.898 363.368,131.732 367.5,128.5C 366.145,127.325 366.312,126.325 368,125.5C 368.317,127.301 368.984,127.634 370,126.5C 370.333,122.5 370.667,118.5 371,114.5C 375.322,113.256 379.322,111.256 383,108.5C 383.273,106.899 383.773,105.399 384.5,104C 381.978,103.39 379.978,102.057 378.5,100C 379.624,99.7508 380.624,99.2508 381.5,98.5C 381,98.1667 380.5,97.8333 380,97.5C 378.269,98.741 376.436,99.741 374.5,100.5C 377.306,97.2721 380.306,94.2721 383.5,91.5C 389.833,86.1667 396.167,80.8333 402.5,75.5C 404.094,75.0805 405.594,74.4138 407,73.5C 408.28,73.6135 409.113,74.2801 409.5,75.5C 408.284,76.0959 406.951,76.2626 405.5,76C 406.167,76.6667 406.833,77.3333 407.5,78C 405.731,79.0194 404.064,79.186 402.5,78.5C 401.289,79.2739 401.289,80.1072 402.5,81C 397.379,82.4232 397.379,83.4232 402.5,84C 400.833,85.1667 399.167,86.3333 397.5,87.5C 397.536,92.5548 395.202,96.5548 390.5,99.5C 391.628,100.262 392.795,100.929 394,101.5C 394.667,104.5 394.667,107.5 394,110.5C 392.139,113.569 390.306,116.569 388.5,119.5C 387.534,121.396 387.201,123.396 387.5,125.5C 383.544,126.053 383.544,126.886 387.5,128C 382.48,129.134 380.813,131.967 382.5,136.5C 381.167,136.5 379.833,136.5 378.5,136.5C 378.762,137.978 378.429,139.311 377.5,140.5C 376.575,139.359 375.741,139.359 375,140.5C 374.503,143.146 374.336,145.813 374.5,148.5C 372.712,148.215 371.045,148.548 369.5,149.5C 370.025,150.192 370.692,150.692 371.5,151C 370.884,154.287 369.384,157.121 367,159.5C 366.503,162.146 366.336,164.813 366.5,167.5C 365.448,167.351 364.448,167.517 363.5,168C 361.875,168.853 361.542,169.853 362.5,171C 361.241,171.923 359.908,172.757 358.5,173.5C 360.274,176.85 359.274,178.516 355.5,178.5C 355.5,181.5 355.5,184.5 355.5,187.5C 354.167,187.5 352.833,187.5 351.5,187.5C 349.516,192.629 348.016,197.963 347,203.5C 346.282,202.549 345.449,202.383 344.5,203C 342.606,204.079 342.273,205.413 343.5,207C 342.207,207.49 340.873,207.657 339.5,207.5C 340.297,212.677 338.964,217.177 335.5,221C 334.207,221.49 332.873,221.657 331.5,221.5C 331.663,223.857 331.497,226.19 331,228.5C 327.867,231.441 326.367,235.108 326.5,239.5C 325.5,239.5 324.5,239.5 323.5,239.5C 323.307,243.449 322.807,243.449 322,239.5C 319.553,243.197 320.053,246.364 323.5,249C 321.998,249.583 320.665,250.416 319.5,251.5C 320.641,252.425 320.641,253.259 319.5,254C 317.5,254.333 315.5,254.667 313.5,255C 314.5,255.333 315.5,255.667 316.5,256C 315.594,257.699 315.261,259.533 315.5,261.5C 311.646,262.136 309.313,264.469 308.5,268.5C 310.093,273.856 308.093,277.023 302.5,278C 302.554,279.351 302.054,280.518 301,281.5C 299.739,280.342 298.573,280.342 297.5,281.5 Z"/></g>
<g><path style="opacity:1" fill="#818386" d="M 320.5,98.5 C 327.222,108.564 333.556,118.898 339.5,129.5C 340.641,131.451 340.641,133.451 339.5,135.5C 338.849,136.091 338.182,136.757 337.5,137.5C 336.158,135.995 334.492,135.328 332.5,135.5C 330.066,130.614 325.732,126.781 319.5,124C 317.698,121.197 315.365,119.031 312.5,117.5C 311.902,116.205 311.402,114.872 311,113.5C 310.586,113.957 310.086,114.291 309.5,114.5C 307.909,111.405 305.743,108.738 303,106.5C 302.102,109.069 300.935,111.402 299.5,113.5C 300.465,108.639 301.799,103.972 303.5,99.5C 307.223,96.6187 310.556,97.1187 313.5,101C 316.367,101.029 318.867,101.862 321,103.5C 321.384,101.803 321.218,100.137 320.5,98.5 Z"/></g>
<g><path style="opacity:0.145" fill="#181919" d="M 420.5,112.5 C 420.598,114.553 419.931,116.22 418.5,117.5C 418.402,115.447 419.069,113.78 420.5,112.5 Z"/></g>
<g><path style="opacity:1" fill="#909195" d="M 339.5,135.5 C 339.741,137.898 339.074,139.898 337.5,141.5C 336.531,143.663 335.698,145.996 335,148.5C 332.432,149.38 331.932,150.88 333.5,153C 333,154.5 332.5,156 332,157.5C 331.808,155.423 331.308,153.423 330.5,151.5C 328.998,150.917 327.665,150.084 326.5,149C 327.833,148.333 327.833,147.667 326.5,147C 324.051,146.275 321.717,145.275 319.5,144C 320.993,142.844 320.826,142.01 319,141.5C 316.865,140.873 314.698,140.373 312.5,140C 313.253,138.513 314.086,138.346 315,139.5C 315.483,138.552 315.649,137.552 315.5,136.5C 314.5,136.5 313.5,136.5 312.5,136.5C 312.5,135.5 312.5,134.5 312.5,133.5C 308.888,132.732 305.888,130.899 303.5,128C 300.773,127.182 298.106,127.348 295.5,128.5C 294.771,130.976 294.104,133.476 293.5,136C 293.164,137.03 292.497,137.53 291.5,137.5C 291.878,133.322 292.878,129.322 294.5,125.5C 296.167,121.5 297.833,117.5 299.5,113.5C 300.935,111.402 302.102,109.069 303,106.5C 305.743,108.738 307.909,111.405 309.5,114.5C 310.086,114.291 310.586,113.957 311,113.5C 311.402,114.872 311.902,116.205 312.5,117.5C 315.365,119.031 317.698,121.197 319.5,124C 325.732,126.781 330.066,130.614 332.5,135.5C 334.492,135.328 336.158,135.995 337.5,137.5C 338.182,136.757 338.849,136.091 339.5,135.5 Z"/></g>
<g><path style="opacity:0.149" fill="#1e1e1e" d="M 418.5,117.5 C 418.293,120.241 417.293,122.574 415.5,124.5C 415.707,121.759 416.707,119.426 418.5,117.5 Z"/></g>
<g><path style="opacity:0.137" fill="#1d1e1e" d="M 415.5,124.5 C 415.267,127.542 414.267,130.208 412.5,132.5C 412.733,129.458 413.733,126.792 415.5,124.5 Z"/></g>
<g><path style="opacity:1" fill="#9c9da1" d="M 337.5,141.5 C 337.663,143.857 337.497,146.19 337,148.5C 334.563,155.517 332.063,162.517 329.5,169.5C 328.735,170.66 327.735,171.66 326.5,172.5C 323.772,170.963 321.605,168.297 320,164.5C 315.641,162.808 312.641,159.808 311,155.5C 310.586,155.957 310.086,156.291 309.5,156.5C 308.571,155.311 308.238,153.978 308.5,152.5C 306.011,152.702 303.677,152.202 301.5,151C 304.668,150.418 305.001,149.418 302.5,148C 305.167,145.76 304.667,144.26 301,143.5C 297.333,144.167 293.667,144.833 290,145.5C 289.257,147.441 289.424,149.274 290.5,151C 288.178,152.937 286.511,155.937 285.5,160C 285.74,162.016 286.074,164.016 286.5,166C 282.82,170.733 280.487,176.067 279.5,182C 281.968,186.459 281.968,190.959 279.5,195.5C 280.167,197.5 280.833,199.5 281.5,201.5C 281.267,202.932 280.6,203.432 279.5,203C 278.213,201.59 277.046,200.09 276,198.5C 276.005,200.917 275.172,203.251 273.5,205.5C 270.506,210.642 269.506,216.142 270.5,222C 269.004,224.851 266.671,226.351 263.5,226.5C 262.833,226.5 262.5,226.167 262.5,225.5C 263.833,225.5 265.167,225.5 266.5,225.5C 266.993,223.194 267.326,220.861 267.5,218.5C 268.053,213.194 269.386,208.194 271.5,203.5C 272.705,200.766 274.205,198.099 276,195.5C 276.498,192.518 276.665,189.518 276.5,186.5C 277.259,181.57 278.592,176.903 280.5,172.5C 282.61,168.498 283.943,164.165 284.5,159.5C 285.658,151.698 287.991,144.364 291.5,137.5C 292.497,137.53 293.164,137.03 293.5,136C 294.104,133.476 294.771,130.976 295.5,128.5C 298.106,127.348 300.773,127.182 303.5,128C 305.888,130.899 308.888,132.732 312.5,133.5C 312.5,134.5 312.5,135.5 312.5,136.5C 313.5,136.5 314.5,136.5 315.5,136.5C 315.649,137.552 315.483,138.552 315,139.5C 314.086,138.346 313.253,138.513 312.5,140C 314.698,140.373 316.865,140.873 319,141.5C 320.826,142.01 320.993,142.844 319.5,144C 321.717,145.275 324.051,146.275 326.5,147C 327.833,147.667 327.833,148.333 326.5,149C 327.665,150.084 328.998,150.917 330.5,151.5C 331.308,153.423 331.808,155.423 332,157.5C 332.5,156 333,154.5 333.5,153C 331.932,150.88 332.432,149.38 335,148.5C 335.698,145.996 336.531,143.663 337.5,141.5 Z"/></g>
<g><path style="opacity:0.322" fill="#2d2d2d" d="M 412.5,132.5 C 412.598,134.553 411.931,136.22 410.5,137.5C 410.12,135.302 410.787,133.635 412.5,132.5 Z"/></g>
<g><path style="opacity:0.706" fill="#797a7a" d="M 145.5,135.5 C 146.924,137.515 147.59,139.848 147.5,142.5C 146.076,140.485 145.41,138.152 145.5,135.5 Z"/></g>
<g><path style="opacity:0.157" fill="#262727" d="M 410.5,137.5 C 408.795,144.629 406.128,151.296 402.5,157.5C 404.061,150.38 406.728,143.713 410.5,137.5 Z"/></g>
<g><path style="opacity:1" fill="#d9dbdc" d="M 139.5,123.5 C 142.564,129.629 144.064,136.295 144,143.5C 144.333,143.167 144.667,142.833 145,142.5C 146.927,147.35 149.094,152.017 151.5,156.5C 151.742,160.479 152.742,164.146 154.5,167.5C 155.057,172.165 156.39,176.498 158.5,180.5C 159.057,185.165 160.39,189.498 162.5,193.5C 163.768,195.905 164.435,198.572 164.5,201.5C 164.662,203.527 164.495,205.527 164,207.5C 163.617,206.944 163.117,206.611 162.5,206.5C 149.516,189.87 137.016,172.87 125,155.5C 114.357,144.058 105.19,131.724 97.5,118.5C 100.038,118.493 102.538,118.159 105,117.5C 116.555,120.447 128.055,122.447 139.5,123.5 Z"/></g>
<g><path style="opacity:1" fill="#c7c8ca" d="M 398.5,163.5 C 396.167,170.833 393.833,178.167 391.5,185.5C 389.206,188.37 387.872,191.703 387.5,195.5C 386.069,196.78 385.402,198.447 385.5,200.5C 384.069,201.78 383.402,203.447 383.5,205.5C 383.737,206.791 383.404,207.791 382.5,208.5C 381.263,209.965 380.263,211.632 379.5,213.5C 376.595,217.949 374.928,222.949 374.5,228.5C 373.069,229.78 372.402,231.447 372.5,233.5C 372.204,235.403 371.537,237.07 370.5,238.5C 369.069,239.78 368.402,241.447 368.5,243.5C 367.069,244.78 366.402,246.447 366.5,248.5C 365.069,249.78 364.402,251.447 364.5,253.5C 362.733,255.792 361.733,258.458 361.5,261.5C 360.069,262.78 359.402,264.447 359.5,266.5C 357.215,269.335 355.882,272.668 355.5,276.5C 353.787,277.635 353.12,279.302 353.5,281.5C 352.069,282.78 351.402,284.447 351.5,286.5C 349.787,287.635 349.12,289.302 349.5,291.5C 348.069,292.78 347.402,294.447 347.5,296.5C 346.069,297.78 345.402,299.447 345.5,301.5C 344.069,302.78 343.402,304.447 343.5,306.5C 341.787,307.635 341.12,309.302 341.5,311.5C 340.069,312.78 339.402,314.447 339.5,316.5C 338.883,316.611 338.383,316.944 338,317.5C 336.516,321.447 335.35,325.447 334.5,329.5C 332.552,331.32 331.552,333.654 331.5,336.5C 329.733,338.792 328.733,341.458 328.5,344.5C 326.787,345.635 326.12,347.302 326.5,349.5C 324.415,351.684 323.415,354.351 323.5,357.5C 319.761,363.659 317.094,370.325 315.5,377.5C 313.794,379.612 312.461,381.945 311.5,384.5C 309.955,385.23 309.122,386.563 309,388.5C 308.085,387.672 307.419,386.672 307,385.5C 303.84,363.574 301.34,341.574 299.5,319.5C 301.218,318.776 303.052,318.109 305,317.5C 305,316.167 305,314.833 305,313.5C 310.209,309.657 311.876,304.657 310,298.5C 311.562,296.566 313.395,294.899 315.5,293.5C 316.149,291.376 316.983,289.376 318,287.5C 318.333,288.167 318.667,288.833 319,289.5C 320.771,283.145 322.604,276.812 324.5,270.5C 326.002,269.917 327.335,269.084 328.5,268C 327.167,267.333 327.167,266.667 328.5,266C 329.448,265.517 330.448,265.351 331.5,265.5C 329.244,260.899 330.578,257.732 335.5,256C 335.167,255.667 334.833,255.333 334.5,255C 336.5,252.667 338.5,250.333 340.5,248C 339.39,245.263 339.223,242.429 340,239.5C 340.806,245.222 341.973,245.555 343.5,240.5C 342.755,237.676 343.921,235.676 347,234.5C 347.483,233.552 347.649,232.552 347.5,231.5C 348.5,231.5 349.5,231.5 350.5,231.5C 350.336,228.813 350.503,226.146 351,223.5C 355.054,220.582 356.554,216.582 355.5,211.5C 357.144,211.714 358.644,211.38 360,210.5C 360,208.5 360,206.5 360,204.5C 361.011,203.663 362.178,203.33 363.5,203.5C 363.5,200.833 363.5,198.167 363.5,195.5C 367.377,195.517 368.043,194.351 365.5,192C 369.165,190.996 372.332,189.162 375,186.5C 374.005,182.775 374.339,179.108 376,175.5C 376.333,177.167 376.667,178.833 377,180.5C 376.711,176.669 377.711,173.002 380,169.5C 380.333,171.5 380.667,173.5 381,175.5C 382.517,174.048 382.684,172.548 381.5,171C 382.104,166.122 382.937,161.289 384,156.5C 384.794,164.073 385.794,163.739 387,155.5C 388.131,156.604 388.965,156.271 389.5,154.5C 388.289,153.28 388.289,152.113 389.5,151C 388.833,150.667 388.167,150.333 387.5,150C 389.833,149 392.167,148 394.5,147C 394.167,146.667 393.833,146.333 393.5,146C 395.121,143.834 395.955,141.334 396,138.5C 396.427,141.449 397.261,144.283 398.5,147C 398.066,149.568 397.4,152.068 396.5,154.5C 397.664,158.335 398.664,158.168 399.5,154C 400.483,153.409 401.15,153.743 401.5,155C 400.571,157.597 398.904,159.597 396.5,161C 397.381,161.708 398.047,162.542 398.5,163.5 Z"/></g>
<g><path style="opacity:0.773" fill="#8d8f8e" d="M 151.5,156.5 C 153.258,159.854 154.258,163.521 154.5,167.5C 152.742,164.146 151.742,160.479 151.5,156.5 Z"/></g>
<g><path style="opacity:0.753" fill="#5e5f60" d="M 284.5,159.5 C 283.943,164.165 282.61,168.498 280.5,172.5C 281.057,167.835 282.39,163.502 284.5,159.5 Z"/></g>
<g><path style="opacity:0.029" fill="#141415" d="M 298.5,108.5 C 297.167,114.167 295.833,119.833 294.5,125.5C 292.878,129.322 291.878,133.322 291.5,137.5C 287.991,144.364 285.658,151.698 284.5,159.5C 282.39,163.502 281.057,167.835 280.5,172.5C 278.592,176.903 277.259,181.57 276.5,186.5C 274.076,191.847 272.409,197.513 271.5,203.5C 269.386,208.194 268.053,213.194 267.5,218.5C 266.518,220.406 265.518,222.406 264.5,224.5C 262.408,222.395 260.075,220.728 257.5,219.5C 255.833,218.167 254.167,216.833 252.5,215.5C 242.527,205.861 232.527,196.194 222.5,186.5C 218.41,185.348 214.743,186.348 211.5,189.5C 199.346,195.074 187.679,201.408 176.5,208.5C 174.734,212.051 172.068,213.384 168.5,212.5C 167.735,209.33 166.735,206.33 165.5,203.5C 165.672,202.508 165.338,201.842 164.5,201.5C 164.435,198.572 163.768,195.905 162.5,193.5C 161.943,188.835 160.61,184.502 158.5,180.5C 157.943,175.835 156.61,171.502 154.5,167.5C 154.258,163.521 153.258,159.854 151.5,156.5C 150.741,151.57 149.408,146.903 147.5,142.5C 147.59,139.848 146.924,137.515 145.5,135.5C 143.7,128.101 141.7,120.767 139.5,113.5C 137.073,107.721 136.24,101.721 137,95.5C 141.389,89.2843 145.556,82.951 149.5,76.5C 152.928,70.6347 156.595,64.9681 160.5,59.5C 162.162,56.8798 163.828,54.2132 165.5,51.5C 173.237,37.0237 181.737,23.0237 191,9.5C 192.009,7.97506 192.509,6.30839 192.5,4.5C 189.171,4.21528 186.171,4.88195 183.5,6.5C 182.833,6.5 182.167,6.5 181.5,6.5C 177.2,6.75466 173.2,7.75466 169.5,9.5C 161.572,10.5501 153.906,12.2168 146.5,14.5C 146.167,14.5 145.833,14.5 145.5,14.5C 135.914,15.8822 126.581,17.8822 117.5,20.5C 114.273,20.6761 111.273,21.3428 108.5,22.5C 100.886,23.5732 93.553,25.2398 86.5,27.5C 84.1667,27.5 81.8333,27.5 79.5,27.5C 82.8165,26.653 86.1498,25.4863 89.5,24C 124.746,16.2848 159.913,9.1181 195,2.5C 195.743,5.78291 195.076,8.78291 193,11.5C 174.181,40.9789 156.014,70.8122 138.5,101C 148.437,136.809 158.771,172.476 169.5,208C 171.289,208.52 172.956,208.187 174.5,207C 189.425,198.414 204.591,190.248 220,182.5C 223.431,184.261 226.597,186.428 229.5,189C 240.57,199.948 251.737,210.782 263,221.5C 271.794,194.446 279.794,167.112 287,139.5C 287.684,137.641 288.684,135.974 290,134.5C 292.236,125.523 295.07,116.856 298.5,108.5 Z"/></g>
<g><path style="opacity:0.99" fill="#bcbcbc" d="M 108.5,22.5 C 107.365,24.2132 105.698,24.8799 103.5,24.5C 103.719,25.675 103.386,26.675 102.5,27.5C 101.167,26.8333 99.8333,26.1667 98.5,25.5C 94.552,26.4451 90.552,27.1118 86.5,27.5C 93.553,25.2398 100.886,23.5732 108.5,22.5 Z"/></g>
<g><path style="opacity:0.882" fill="#9f9fa0" d="M 145.5,14.5 C 145.389,15.1174 145.056,15.6174 144.5,16C 135.619,18.3049 126.619,19.8049 117.5,20.5C 126.581,17.8822 135.914,15.8822 145.5,14.5 Z"/></g>
<g><path style="opacity:0.855" fill="#919191" d="M 169.5,9.5 C 169.389,10.1174 169.056,10.6174 168.5,11C 161.209,12.4931 153.875,13.6597 146.5,14.5C 153.906,12.2168 161.572,10.5501 169.5,9.5 Z"/></g>
<g><path style="opacity:0.643" fill="#7c7c7d" d="M 181.5,6.5 C 181.389,7.11742 181.056,7.61742 180.5,8C 176.83,8.54822 173.163,9.04822 169.5,9.5C 173.2,7.75466 177.2,6.75466 181.5,6.5 Z"/></g>
<g><path style="opacity:0.843" fill="#9c9c9c" d="M 154.5,167.5 C 156.61,171.502 157.943,175.835 158.5,180.5C 156.39,176.498 155.057,172.165 154.5,167.5 Z"/></g>
<g><path style="opacity:0.133" fill="#1e1e1e" d="M 402.5,157.5 C 399.6,167.213 395.933,176.547 391.5,185.5C 393.833,178.167 396.167,170.833 398.5,163.5C 399.833,161.5 401.167,159.5 402.5,157.5 Z"/></g>
<g><path style="opacity:1" fill="#a7a8ac" d="M 329.5,169.5 C 324.618,185.476 319.951,201.476 315.5,217.5C 309.708,238.972 303.708,260.306 297.5,281.5C 296.058,282.82 295.392,284.486 295.5,286.5C 293.801,286.66 292.134,286.494 290.5,286C 290.957,285.586 291.291,285.086 291.5,284.5C 288.751,281.603 288.918,278.937 292,276.5C 292.52,274.711 292.187,273.044 291,271.5C 290.915,273.085 290.749,274.418 290.5,275.5C 287.465,269.78 284.132,264.113 280.5,258.5C 280.977,257.522 281.643,256.689 282.5,256C 280.697,255.363 279.364,254.197 278.5,252.5C 277.833,237.833 277.167,223.167 276.5,208.5C 274.729,207.965 274.396,207.131 275.5,206C 274.906,205.536 274.239,205.369 273.5,205.5C 275.172,203.251 276.005,200.917 276,198.5C 277.046,200.09 278.213,201.59 279.5,203C 280.6,203.432 281.267,202.932 281.5,201.5C 280.833,199.5 280.167,197.5 279.5,195.5C 281.968,190.959 281.968,186.459 279.5,182C 280.487,176.067 282.82,170.733 286.5,166C 286.074,164.016 285.74,162.016 285.5,160C 286.511,155.937 288.178,152.937 290.5,151C 289.424,149.274 289.257,147.441 290,145.5C 293.667,144.833 297.333,144.167 301,143.5C 304.667,144.26 305.167,145.76 302.5,148C 305.001,149.418 304.668,150.418 301.5,151C 303.677,152.202 306.011,152.702 308.5,152.5C 308.238,153.978 308.571,155.311 309.5,156.5C 310.086,156.291 310.586,155.957 311,155.5C 312.641,159.808 315.641,162.808 320,164.5C 321.605,168.297 323.772,170.963 326.5,172.5C 327.735,171.66 328.735,170.66 329.5,169.5 Z"/></g>
<g><path style="opacity:0.859" fill="#9a9a9a" d="M 158.5,180.5 C 160.61,184.502 161.943,188.835 162.5,193.5C 160.39,189.498 159.057,185.165 158.5,180.5 Z"/></g>
<g><path style="opacity:0.161" fill="#1f1f1f" d="M 391.5,185.5 C 390.737,189.137 389.403,192.47 387.5,195.5C 387.872,191.703 389.206,188.37 391.5,185.5 Z"/></g>
<g><path style="opacity:0.969" fill="#7b7d7d" d="M 276.5,186.5 C 276.665,189.518 276.498,192.518 276,195.5C 274.205,198.099 272.705,200.766 271.5,203.5C 272.409,197.513 274.076,191.847 276.5,186.5 Z"/></g>
<g><path style="opacity:0.173" fill="#1e1e1e" d="M 387.5,195.5 C 387.598,197.553 386.931,199.22 385.5,200.5C 385.402,198.447 386.069,196.78 387.5,195.5 Z"/></g>
<g><path style="opacity:1" fill="#9b9ca0" d="M 222.5,186.5 C 221.178,186.33 220.011,186.663 219,187.5C 213.808,206.271 208.308,224.937 202.5,243.5C 203.34,244.735 204.34,245.735 205.5,246.5C 203.856,246.286 202.356,246.62 201,247.5C 198.618,251.144 197.118,255.144 196.5,259.5C 197.242,260.287 198.075,260.953 199,261.5C 200.333,270.281 202.5,278.781 205.5,287C 205.5,290 205.5,293 205.5,296C 208.453,301.749 209.786,307.749 209.5,314C 210.93,315.889 211.597,318.055 211.5,320.5C 210.809,323.198 210.142,325.865 209.5,328.5C 200.312,336.265 191.312,344.265 182.5,352.5C 182.5,351.167 182.5,349.833 182.5,348.5C 183.5,348.5 184.5,348.5 185.5,348.5C 185.903,345.594 187.569,343.761 190.5,343C 190.167,342.667 189.833,342.333 189.5,342C 191.045,340.312 192.045,338.312 192.5,336C 189.833,334.333 189.833,332.667 192.5,331C 191.335,329.916 190.002,329.083 188.5,328.5C 187.508,324.217 187.174,319.884 187.5,315.5C 190.797,315.671 191.131,315.005 188.5,313.5C 187.833,310.167 187.167,306.833 186.5,303.5C 185.402,307.361 184.569,307.361 184,303.5C 183.223,300.571 183.39,297.737 184.5,295C 181.833,292.667 181.833,290.333 184.5,288C 183.534,286.322 182.201,285.655 180.5,286C 168.589,302.986 158.089,320.819 149,339.5C 147.989,340.337 146.822,340.67 145.5,340.5C 141.319,349.022 137.319,357.689 133.5,366.5C 131.526,370.787 128.86,374.454 125.5,377.5C 125.075,372.21 126.408,367.21 129.5,362.5C 129.069,361.707 128.735,360.873 128.5,360C 130.038,356.677 131.204,353.177 132,349.5C 132.896,346.86 134.396,344.693 136.5,343C 135.903,341.938 135.57,340.772 135.5,339.5C 137.719,335.52 138.886,331.187 139,326.5C 140.43,326.694 141.93,326.694 143.5,326.5C 142.689,325.784 142.022,324.95 141.5,324C 142.484,322.343 143.484,320.677 144.5,319C 143.483,317.951 143.316,316.784 144,315.5C 145.115,314 145.948,312.333 146.5,310.5C 149.42,309.638 150.42,307.972 149.5,305.5C 150.825,299.51 152.159,293.51 153.5,287.5C 155.976,284.147 155.476,283.814 152,286.5C 151.833,286.167 151.667,285.833 151.5,285.5C 154.961,281.97 157.794,277.97 160,273.5C 160.333,270.833 160.667,268.167 161,265.5C 161.645,264.354 162.478,263.354 163.5,262.5C 162.456,260.232 162.289,257.899 163,255.5C 164.011,256.337 165.178,256.67 166.5,256.5C 166.586,248.891 168.253,241.724 171.5,235C 171.384,233.732 171.051,232.398 170.5,231C 171,230.5 171.5,230 172,229.5C 172.71,230.973 173.876,231.64 175.5,231.5C 175.334,226.821 175.501,222.155 176,217.5C 176.833,216 178,214.833 179.5,214C 178.833,213.667 178.167,213.333 177.5,213C 178.949,211.883 180.616,211.216 182.5,211C 181.167,210.667 179.833,210.333 178.5,210C 180.093,209.051 181.426,207.885 182.5,206.5C 191.814,201.009 201.481,196.342 211.5,192.5C 211.5,191.5 211.5,190.5 211.5,189.5C 214.743,186.348 218.41,185.348 222.5,186.5 Z"/></g>
<g><path style="opacity:1" fill="#dedfe1" d="M 222.5,186.5 C 223.1,189.298 224.1,191.965 225.5,194.5C 224.674,195.451 224.508,196.451 225,197.5C 226.049,196.483 227.216,196.316 228.5,197C 227.549,197.718 227.383,198.551 228,199.5C 229.11,197.963 230.61,197.297 232.5,197.5C 232.688,201.064 233.688,204.397 235.5,207.5C 236.698,207.94 237.865,208.273 239,208.5C 239.388,212.219 240.055,215.886 241,219.5C 242.074,220.618 243.24,221.618 244.5,222.5C 243.833,223.167 243.167,223.833 242.5,224.5C 244.527,225.861 246.194,227.527 247.5,229.5C 246.554,231.258 246.554,232.925 247.5,234.5C 248.842,233.098 249.676,233.431 250,235.5C 252.553,240.412 254.22,245.745 255,251.5C 257.482,252.624 257.982,254.29 256.5,256.5C 258.379,258.913 260.046,261.413 261.5,264C 260.833,264.333 260.167,264.667 259.5,265C 262.228,265.639 262.728,266.806 261,268.5C 260.309,266.109 259.309,266.109 258,268.5C 256.644,267.62 255.144,267.286 253.5,267.5C 249.145,265.99 244.812,264.323 240.5,262.5C 233.695,259.024 226.695,256.024 219.5,253.5C 216.325,250.672 212.658,248.672 208.5,247.5C 207.391,247.443 206.391,247.11 205.5,246.5C 204.34,245.735 203.34,244.735 202.5,243.5C 208.308,224.937 213.808,206.271 219,187.5C 220.011,186.663 221.178,186.33 222.5,186.5 Z"/></g>
<g><path style="opacity:0.788" fill="#595a5a" d="M 211.5,189.5 C 211.5,190.5 211.5,191.5 211.5,192.5C 201.481,196.342 191.814,201.009 182.5,206.5C 180.5,207.167 178.5,207.833 176.5,208.5C 187.679,201.408 199.346,195.074 211.5,189.5 Z"/></g>
<g><path style="opacity:0.184" fill="#1e1e1e" d="M 385.5,200.5 C 385.598,202.553 384.931,204.22 383.5,205.5C 383.402,203.447 384.069,201.78 385.5,200.5 Z"/></g>
<g><path style="opacity:0.129" fill="#1a1a1b" d="M 382.5,208.5 C 382.293,211.241 381.293,213.574 379.5,215.5C 379.5,214.833 379.5,214.167 379.5,213.5C 380.263,211.632 381.263,209.965 382.5,208.5 Z"/></g>
<g><path style="opacity:0.843" fill="#5c5d5e" d="M 379.5,213.5 C 379.5,214.167 379.5,214.833 379.5,215.5C 378.404,220.132 376.737,224.466 374.5,228.5C 374.928,222.949 376.595,217.949 379.5,213.5 Z"/></g>
<g><path style="opacity:0.835" fill="#626364" d="M 267.5,218.5 C 267.326,220.861 266.993,223.194 266.5,225.5C 265.167,225.5 263.833,225.5 262.5,225.5C 260.833,223.5 259.167,221.5 257.5,219.5C 260.075,220.728 262.408,222.395 264.5,224.5C 265.518,222.406 266.518,220.406 267.5,218.5 Z"/></g>
<g><path style="opacity:1" fill="#cdced0" d="M 222.5,186.5 C 232.527,196.194 242.527,205.861 252.5,215.5C 254.346,218.535 255.513,221.868 256,225.5C 257.016,226.634 257.683,226.301 258,224.5C 259.684,226.351 261.517,228.018 263.5,229.5C 262.48,231.432 262.313,233.432 263,235.5C 266.444,239.462 268.11,244.128 268,249.5C 271.936,254.741 274.27,260.741 275,267.5C 277.951,270.172 279.117,273.505 278.5,277.5C 277.5,277.5 276.5,277.5 275.5,277.5C 267.934,274.752 260.6,271.419 253.5,267.5C 255.144,267.286 256.644,267.62 258,268.5C 259.309,266.109 260.309,266.109 261,268.5C 262.728,266.806 262.228,265.639 259.5,265C 260.167,264.667 260.833,264.333 261.5,264C 260.046,261.413 258.379,258.913 256.5,256.5C 257.982,254.29 257.482,252.624 255,251.5C 254.22,245.745 252.553,240.412 250,235.5C 249.676,233.431 248.842,233.098 247.5,234.5C 246.554,232.925 246.554,231.258 247.5,229.5C 246.194,227.527 244.527,225.861 242.5,224.5C 243.167,223.833 243.833,223.167 244.5,222.5C 243.24,221.618 242.074,220.618 241,219.5C 240.055,215.886 239.388,212.219 239,208.5C 237.865,208.273 236.698,207.94 235.5,207.5C 233.688,204.397 232.688,201.064 232.5,197.5C 230.61,197.297 229.11,197.963 228,199.5C 227.383,198.551 227.549,197.718 228.5,197C 227.216,196.316 226.049,196.483 225,197.5C 224.508,196.451 224.674,195.451 225.5,194.5C 224.1,191.965 223.1,189.298 222.5,186.5 Z"/></g>
<g><path style="opacity:0.149" fill="#1a1a1a" d="M 374.5,228.5 C 374.598,230.553 373.931,232.22 372.5,233.5C 372.402,231.447 373.069,229.78 374.5,228.5 Z"/></g>
<g><path style="opacity:0.129" fill="#171717" d="M 370.5,238.5 C 370.598,240.553 369.931,242.22 368.5,243.5C 368.402,241.447 369.069,239.78 370.5,238.5 Z"/></g>
<g><path style="opacity:0.157" fill="#1b1c1c" d="M 368.5,243.5 C 368.598,245.553 367.931,247.22 366.5,248.5C 366.402,246.447 367.069,244.78 368.5,243.5 Z"/></g>
<g><path style="opacity:1" fill="#b6b7b9" d="M 164.5,201.5 C 165.338,201.842 165.672,202.508 165.5,203.5C 165.85,208.515 165.183,213.348 163.5,218C 165.992,219.249 165.825,220.416 163,221.5C 162.683,225.799 161.017,229.465 158,232.5C 156.691,234.686 156.524,236.853 157.5,239C 154.792,244.007 152.458,249.174 150.5,254.5C 151.428,255.768 151.595,257.101 151,258.5C 149.701,259.09 148.868,260.09 148.5,261.5C 147.385,267.589 145.219,273.255 142,278.5C 141.667,281.5 141.333,284.5 141,287.5C 140.167,288.5 139.333,289.5 138.5,290.5C 135.587,301.753 131.42,312.42 126,322.5C 124.993,329.695 122.826,336.528 119.5,343C 119.833,343.333 120.167,343.667 120.5,344C 119.584,344.374 118.75,344.874 118,345.5C 117.785,348.856 117.785,352.189 118,355.5C 117.414,359.326 115.414,361.992 112,363.5C 111.667,365.5 111.333,367.5 111,369.5C 110.722,368.584 110.222,367.918 109.5,367.5C 108.384,357.469 107.05,347.469 105.5,337.5C 106.735,337.721 107.735,338.388 108.5,339.5C 112.948,335.603 114.281,330.437 112.5,324C 113.729,322.471 115.229,321.304 117,320.5C 117.333,317.5 117.667,314.5 118,311.5C 119.011,310.663 120.178,310.33 121.5,310.5C 121.737,307.788 121.737,305.288 121.5,303C 122.789,299.459 124.456,296.126 126.5,293C 124.902,291.038 125.236,289.538 127.5,288.5C 127.587,284.621 129.254,281.788 132.5,280C 132.043,279.586 131.709,279.086 131.5,278.5C 132.651,274.577 133.485,270.577 134,266.5C 135.205,265.929 136.372,265.262 137.5,264.5C 136.276,262.161 136.276,259.828 137.5,257.5C 138.192,258.025 138.692,258.692 139,259.5C 139.333,259.167 139.667,258.833 140,258.5C 140.338,253.453 141.005,248.453 142,243.5C 142.333,244.833 142.667,246.167 143,247.5C 145.868,239.062 148.201,230.395 150,221.5C 151.011,220.663 152.178,220.33 153.5,220.5C 153.268,215.954 154.101,211.621 156,207.5C 158.072,207.742 160.239,207.409 162.5,206.5C 163.117,206.611 163.617,206.944 164,207.5C 164.495,205.527 164.662,203.527 164.5,201.5 Z"/></g>
<g><path style="opacity:0.141" fill="#181818" d="M 366.5,248.5 C 366.598,250.553 365.931,252.22 364.5,253.5C 364.402,251.447 365.069,249.78 366.5,248.5 Z"/></g>
<g><path style="opacity:1" fill="#96979b" d="M 208.5,247.5 C 212.658,248.672 216.325,250.672 219.5,253.5C 219.077,254.265 218.743,255.098 218.5,256C 219.823,264.617 221.323,273.117 223,281.5C 224,282.5 225,283.5 226,284.5C 226.722,296.006 228.388,307.339 231,318.5C 232.376,321.053 233.543,323.72 234.5,326.5C 235.192,325.975 235.692,325.308 236,324.5C 236.626,326.713 236.459,328.88 235.5,331C 237.256,333.424 238.923,335.924 240.5,338.5C 239.388,339.265 238.721,340.265 238.5,341.5C 236.754,339.748 234.754,338.415 232.5,337.5C 231.5,336.167 230.5,334.833 229.5,333.5C 228.441,329.27 226.108,325.436 222.5,322C 220.118,315.06 218.951,307.894 219,300.5C 218.487,298.479 217.32,296.979 215.5,296C 216.252,287.867 214.919,280.034 211.5,272.5C 211.833,271.833 212.167,271.167 212.5,270.5C 208.613,265.908 207.613,260.741 209.5,255C 209.095,254.055 208.428,253.388 207.5,253C 209.299,251.3 209.632,249.467 208.5,247.5 Z"/></g>
<g><path style="opacity:0.114" fill="#1f1f1f" d="M 55.5,175.5 C 74.1157,245.29 92.449,315.29 110.5,385.5C 111.01,388.539 111.677,391.539 112.5,394.5C 113.219,396.764 113.552,399.097 113.5,401.5C 93.2529,326.514 73.9195,251.181 55.5,175.5 Z"/></g>
<g><path style="opacity:0.118" fill="#161616" d="M 364.5,253.5 C 364.267,256.542 363.267,259.208 361.5,261.5C 361.733,258.458 362.733,255.792 364.5,253.5 Z"/></g>
<g><path style="opacity:1" fill="#a3a4a7" d="M 219.5,253.5 C 226.695,256.024 233.695,259.024 240.5,262.5C 240.119,263.931 239.119,264.764 237.5,265C 239.285,266.163 241.285,266.83 243.5,267C 241.729,267.535 241.396,268.369 242.5,269.5C 243.748,268.96 244.915,268.293 246,267.5C 246.456,268.744 245.956,269.577 244.5,270C 245.704,271.353 246.371,273.019 246.5,275C 245.802,279.811 245.469,284.644 245.5,289.5C 247.948,289.01 249.615,289.843 250.5,292C 249.898,296.049 249.231,300.049 248.5,304C 249.784,304.684 250.951,304.517 252,303.5C 253.109,311.457 253.776,319.457 254,327.5C 255,327.833 256,328.167 257,328.5C 257.167,331 257.333,333.5 257.5,336C 257.432,338.95 256.766,341.617 255.5,344C 256.834,346.087 258.667,347.587 261,348.5C 262.202,350.553 262.536,352.553 262,354.5C 263.558,355.345 264.558,354.679 265,352.5C 265.684,353.784 265.517,354.951 264.5,356C 262.793,356.195 261.126,356.195 259.5,356C 264.786,359.261 270.119,362.594 275.5,366C 274.833,366.333 274.167,366.667 273.5,367C 274.381,367.708 275.047,368.542 275.5,369.5C 274.833,369.5 274.167,369.5 273.5,369.5C 272.415,367.413 270.749,366.08 268.5,365.5C 268.027,364.094 267.027,363.427 265.5,363.5C 264.415,361.413 262.749,360.08 260.5,359.5C 259.738,357.738 258.404,356.738 256.5,356.5C 255.415,354.413 253.749,353.08 251.5,352.5C 250.738,350.738 249.404,349.738 247.5,349.5C 246.415,347.413 244.749,346.08 242.5,345.5C 241.738,343.738 240.404,342.738 238.5,342.5C 238.5,342.167 238.5,341.833 238.5,341.5C 238.721,340.265 239.388,339.265 240.5,338.5C 238.923,335.924 237.256,333.424 235.5,331C 236.459,328.88 236.626,326.713 236,324.5C 235.692,325.308 235.192,325.975 234.5,326.5C 233.543,323.72 232.376,321.053 231,318.5C 228.388,307.339 226.722,296.006 226,284.5C 225,283.5 224,282.5 223,281.5C 221.323,273.117 219.823,264.617 218.5,256C 218.743,255.098 219.077,254.265 219.5,253.5 Z"/></g>
<g><path style="opacity:0.133" fill="#151515" d="M 361.5,261.5 C 361.598,263.553 360.931,265.22 359.5,266.5C 359.402,264.447 360.069,262.78 361.5,261.5 Z"/></g>
<g><path style="opacity:1" fill="#aaabac" d="M 165.5,203.5 C 166.735,206.33 167.735,209.33 168.5,212.5C 168.663,214.857 168.497,217.19 168,219.5C 161.875,238.44 155.708,257.44 149.5,276.5C 148.736,278.74 147.902,281.073 147,283.5C 142.624,287.19 141.29,291.856 143,297.5C 141.942,301.944 140.109,305.944 137.5,309.5C 136.513,312.768 136.18,316.102 136.5,319.5C 135.5,319.5 134.5,319.5 133.5,319.5C 133.394,324.356 131.561,328.356 128,331.5C 125.36,336.426 123.693,341.759 123,347.5C 120.779,352.943 118.279,358.277 115.5,363.5C 114.721,369.177 113.888,374.844 113,380.5C 110.928,376.444 109.761,372.111 109.5,367.5C 110.222,367.918 110.722,368.584 111,369.5C 111.333,367.5 111.667,365.5 112,363.5C 115.414,361.992 117.414,359.326 118,355.5C 117.785,352.189 117.785,348.856 118,345.5C 118.75,344.874 119.584,344.374 120.5,344C 120.167,343.667 119.833,343.333 119.5,343C 122.826,336.528 124.993,329.695 126,322.5C 131.42,312.42 135.587,301.753 138.5,290.5C 139.333,289.5 140.167,288.5 141,287.5C 141.333,284.5 141.667,281.5 142,278.5C 145.219,273.255 147.385,267.589 148.5,261.5C 148.868,260.09 149.701,259.09 151,258.5C 151.595,257.101 151.428,255.768 150.5,254.5C 152.458,249.174 154.792,244.007 157.5,239C 156.524,236.853 156.691,234.686 158,232.5C 161.017,229.465 162.683,225.799 163,221.5C 165.825,220.416 165.992,219.249 163.5,218C 165.183,213.348 165.85,208.515 165.5,203.5 Z"/></g>
<g><path style="opacity:1" fill="#8b8c8f" d="M 205.5,246.5 C 206.391,247.11 207.391,247.443 208.5,247.5C 209.632,249.467 209.299,251.3 207.5,253C 208.428,253.388 209.095,254.055 209.5,255C 207.613,260.741 208.613,265.908 212.5,270.5C 212.167,271.167 211.833,271.833 211.5,272.5C 214.919,280.034 216.252,287.867 215.5,296C 217.32,296.979 218.487,298.479 219,300.5C 218.951,307.894 220.118,315.06 222.5,322C 226.108,325.436 228.441,329.27 229.5,333.5C 228.833,333.5 228.167,333.5 227.5,333.5C 226.415,331.413 224.749,330.08 222.5,329.5C 218.715,323.182 214.381,322.848 209.5,328.5C 210.142,325.865 210.809,323.198 211.5,320.5C 211.597,318.055 210.93,315.889 209.5,314C 209.786,307.749 208.453,301.749 205.5,296C 205.5,293 205.5,290 205.5,287C 202.5,278.781 200.333,270.281 199,261.5C 198.075,260.953 197.242,260.287 196.5,259.5C 197.118,255.144 198.618,251.144 201,247.5C 202.356,246.62 203.856,246.286 205.5,246.5 Z"/></g>
<g><path style="opacity:1" fill="#a9aaae" d="M 273.5,205.5 C 274.239,205.369 274.906,205.536 275.5,206C 274.396,207.131 274.729,207.965 276.5,208.5C 277.167,223.167 277.833,237.833 278.5,252.5C 279.364,254.197 280.697,255.363 282.5,256C 281.643,256.689 280.977,257.522 280.5,258.5C 284.132,264.113 287.465,269.78 290.5,275.5C 290.749,274.418 290.915,273.085 291,271.5C 292.187,273.044 292.52,274.711 292,276.5C 288.918,278.937 288.751,281.603 291.5,284.5C 291.291,285.086 290.957,285.586 290.5,286C 292.134,286.494 293.801,286.66 295.5,286.5C 296.114,297.738 297.447,308.738 299.5,319.5C 301.34,341.574 303.84,363.574 307,385.5C 307.419,386.672 308.085,387.672 309,388.5C 309.122,386.563 309.955,385.23 311.5,384.5C 310.901,387.963 309.901,391.296 308.5,394.5C 307.127,394.657 305.793,394.49 304.5,394C 303.211,392.198 301.544,391.031 299.5,390.5C 297.761,387.757 295.427,385.757 292.5,384.5C 291.738,382.738 290.404,381.738 288.5,381.5C 288.027,380.094 287.027,379.427 285.5,379.5C 283.431,376.427 280.764,374.094 277.5,372.5C 276.833,371.5 276.167,370.5 275.5,369.5C 275.047,368.542 274.381,367.708 273.5,367C 274.167,366.667 274.833,366.333 275.5,366C 270.119,362.594 264.786,359.261 259.5,356C 261.126,356.195 262.793,356.195 264.5,356C 265.517,354.951 265.684,353.784 265,352.5C 264.558,354.679 263.558,355.345 262,354.5C 262.536,352.553 262.202,350.553 261,348.5C 258.667,347.587 256.834,346.087 255.5,344C 256.766,341.617 257.432,338.95 257.5,336C 257.333,333.5 257.167,331 257,328.5C 256,328.167 255,327.833 254,327.5C 253.776,319.457 253.109,311.457 252,303.5C 250.951,304.517 249.784,304.684 248.5,304C 249.231,300.049 249.898,296.049 250.5,292C 249.615,289.843 247.948,289.01 245.5,289.5C 245.469,284.644 245.802,279.811 246.5,275C 246.371,273.019 245.704,271.353 244.5,270C 245.956,269.577 246.456,268.744 246,267.5C 244.915,268.293 243.748,268.96 242.5,269.5C 241.396,268.369 241.729,267.535 243.5,267C 241.285,266.83 239.285,266.163 237.5,265C 239.119,264.764 240.119,263.931 240.5,262.5C 244.812,264.323 249.145,265.99 253.5,267.5C 260.6,271.419 267.934,274.752 275.5,277.5C 278.892,279.504 282.558,281.17 286.5,282.5C 287.308,282.192 287.975,281.692 288.5,281C 283.66,269.805 278.826,258.638 274,247.5C 272.642,239.45 269.142,232.45 263.5,226.5C 266.671,226.351 269.004,224.851 270.5,222C 269.506,216.142 270.506,210.642 273.5,205.5 Z"/></g>
<g><path style="opacity:1" fill="#b6b7b9" d="M 252.5,215.5 C 254.167,216.833 255.833,218.167 257.5,219.5C 259.167,221.5 260.833,223.5 262.5,225.5C 262.5,226.167 262.833,226.5 263.5,226.5C 269.142,232.45 272.642,239.45 274,247.5C 278.826,258.638 283.66,269.805 288.5,281C 287.975,281.692 287.308,282.192 286.5,282.5C 282.558,281.17 278.892,279.504 275.5,277.5C 276.5,277.5 277.5,277.5 278.5,277.5C 279.117,273.505 277.951,270.172 275,267.5C 274.27,260.741 271.936,254.741 268,249.5C 268.11,244.128 266.444,239.462 263,235.5C 262.313,233.432 262.48,231.432 263.5,229.5C 261.517,228.018 259.684,226.351 258,224.5C 257.683,226.301 257.016,226.634 256,225.5C 255.513,221.868 254.346,218.535 252.5,215.5 Z"/></g>
<g><path style="opacity:0.176" fill="#1f1f1f" d="M 359.5,266.5 C 358.733,270.149 357.4,273.482 355.5,276.5C 355.882,272.668 357.215,269.335 359.5,266.5 Z"/></g>
<g><path style="opacity:0.325" fill="#2c2c2c" d="M 355.5,276.5 C 355.598,278.553 354.931,280.22 353.5,281.5C 353.12,279.302 353.787,277.635 355.5,276.5 Z"/></g>
<g><path style="opacity:0.149" fill="#1a1a1a" d="M 353.5,281.5 C 353.598,283.553 352.931,285.22 351.5,286.5C 351.402,284.447 352.069,282.78 353.5,281.5 Z"/></g>
<g><path style="opacity:0.341" fill="#2e2e2e" d="M 351.5,286.5 C 351.598,288.553 350.931,290.22 349.5,291.5C 349.12,289.302 349.787,287.635 351.5,286.5 Z"/></g>
<g><path style="opacity:0.145" fill="#1a1a1a" d="M 349.5,291.5 C 349.598,293.553 348.931,295.22 347.5,296.5C 347.402,294.447 348.069,292.78 349.5,291.5 Z"/></g>
<g><path style="opacity:0.149" fill="#171817" d="M 347.5,296.5 C 347.598,298.553 346.931,300.22 345.5,301.5C 345.402,299.447 346.069,297.78 347.5,296.5 Z"/></g>
<g><path style="opacity:1" fill="#939497" d="M 182.5,206.5 C 181.426,207.885 180.093,209.051 178.5,210C 179.833,210.333 181.167,210.667 182.5,211C 180.616,211.216 178.949,211.883 177.5,213C 178.167,213.333 178.833,213.667 179.5,214C 178,214.833 176.833,216 176,217.5C 175.501,222.155 175.334,226.821 175.5,231.5C 173.876,231.64 172.71,230.973 172,229.5C 171.5,230 171,230.5 170.5,231C 171.051,232.398 171.384,233.732 171.5,235C 168.253,241.724 166.586,248.891 166.5,256.5C 165.178,256.67 164.011,256.337 163,255.5C 162.289,257.899 162.456,260.232 163.5,262.5C 162.478,263.354 161.645,264.354 161,265.5C 160.667,268.167 160.333,270.833 160,273.5C 157.794,277.97 154.961,281.97 151.5,285.5C 151.667,285.833 151.833,286.167 152,286.5C 155.476,283.814 155.976,284.147 153.5,287.5C 152.159,293.51 150.825,299.51 149.5,305.5C 150.42,307.972 149.42,309.638 146.5,310.5C 145.948,312.333 145.115,314 144,315.5C 143.316,316.784 143.483,317.951 144.5,319C 143.484,320.677 142.484,322.343 141.5,324C 142.022,324.95 142.689,325.784 143.5,326.5C 141.93,326.694 140.43,326.694 139,326.5C 138.886,331.187 137.719,335.52 135.5,339.5C 135.57,340.772 135.903,341.938 136.5,343C 134.396,344.693 132.896,346.86 132,349.5C 131.204,353.177 130.038,356.677 128.5,360C 128.735,360.873 129.069,361.707 129.5,362.5C 126.408,367.21 125.075,372.21 125.5,377.5C 122.257,384.077 118.59,390.41 114.5,396.5C 114.167,395.5 113.5,394.833 112.5,394.5C 111.677,391.539 111.01,388.539 110.5,385.5C 111.222,385.918 111.722,386.584 112,387.5C 113.333,385.833 114.667,384.167 116,382.5C 115.642,377.52 117.309,373.52 121,370.5C 122.413,366.261 123.413,361.928 124,357.5C 124.667,356.833 125.333,356.167 126,355.5C 130.182,341.1 134.516,326.767 139,312.5C 144.633,301.104 148.133,289.104 149.5,276.5C 155.708,257.44 161.875,238.44 168,219.5C 168.497,217.19 168.663,214.857 168.5,212.5C 172.068,213.384 174.734,212.051 176.5,208.5C 178.5,207.833 180.5,207.167 182.5,206.5 Z"/></g>
<g><path style="opacity:0.161" fill="#1a1b1a" d="M 345.5,301.5 C 345.598,303.553 344.931,305.22 343.5,306.5C 343.402,304.447 344.069,302.78 345.5,301.5 Z"/></g>
<g><path style="opacity:0.388" fill="#343535" d="M 343.5,306.5 C 343.598,308.553 342.931,310.22 341.5,311.5C 341.12,309.302 341.787,307.635 343.5,306.5 Z"/></g>
<g><path style="opacity:0.165" fill="#1c1d1d" d="M 341.5,311.5 C 341.598,313.553 340.931,315.22 339.5,316.5C 339.402,314.447 340.069,312.78 341.5,311.5 Z"/></g>
<g><path style="opacity:0.169" fill="#1a1a1a" d="M 222.5,329.5 C 220.211,327.994 217.877,326.827 215.5,326C 203.982,335.358 192.648,344.858 181.5,354.5C 181.833,353.833 182.167,353.167 182.5,352.5C 191.312,344.265 200.312,336.265 209.5,328.5C 214.381,322.848 218.715,323.182 222.5,329.5 Z"/></g>
<g><path style="opacity:0.188" fill="#282929" d="M 339.5,316.5 C 338.404,321.132 336.737,325.466 334.5,329.5C 335.35,325.447 336.516,321.447 338,317.5C 338.383,316.944 338.883,316.611 339.5,316.5 Z"/></g>
<g><path style="opacity:0.259" fill="#191919" d="M 222.5,329.5 C 224.749,330.08 226.415,331.413 227.5,333.5C 225.251,332.92 223.585,331.587 222.5,329.5 Z"/></g>
<g><path style="opacity:1" fill="#a6a7ab" d="M 182.5,352.5 C 179.312,352.618 176.312,353.451 173.5,355C 154.332,369.661 134.999,384.161 115.5,398.5C 114.702,398.043 114.369,397.376 114.5,396.5C 118.59,390.41 122.257,384.077 125.5,377.5C 128.86,374.454 131.526,370.787 133.5,366.5C 137.319,357.689 141.319,349.022 145.5,340.5C 146.822,340.67 147.989,340.337 149,339.5C 158.089,320.819 168.589,302.986 180.5,286C 182.201,285.655 183.534,286.322 184.5,288C 181.833,290.333 181.833,292.667 184.5,295C 183.39,297.737 183.223,300.571 184,303.5C 184.569,307.361 185.402,307.361 186.5,303.5C 187.167,306.833 187.833,310.167 188.5,313.5C 191.131,315.005 190.797,315.671 187.5,315.5C 187.174,319.884 187.508,324.217 188.5,328.5C 190.002,329.083 191.335,329.916 192.5,331C 189.833,332.667 189.833,334.333 192.5,336C 192.045,338.312 191.045,340.312 189.5,342C 189.833,342.333 190.167,342.667 190.5,343C 187.569,343.761 185.903,345.594 185.5,348.5C 184.5,348.5 183.5,348.5 182.5,348.5C 182.5,349.833 182.5,351.167 182.5,352.5 Z"/></g>
<g><path style="opacity:0.161" fill="#212122" d="M 334.5,329.5 C 334.065,332.157 333.065,334.491 331.5,336.5C 331.552,333.654 332.552,331.32 334.5,329.5 Z"/></g>
<g><path style="opacity:0.188" fill="#1f1f1f" d="M 227.5,333.5 C 228.167,333.5 228.833,333.5 229.5,333.5C 230.5,334.833 231.5,336.167 232.5,337.5C 230.251,336.92 228.585,335.587 227.5,333.5 Z"/></g>
<g><path style="opacity:0.275" fill="#1c1c1d" d="M 232.5,337.5 C 234.754,338.415 236.754,339.748 238.5,341.5C 238.5,341.833 238.5,342.167 238.5,342.5C 235.911,341.581 233.911,339.914 232.5,337.5 Z"/></g>
<g><path style="opacity:0.149" fill="#1b1b1b" d="M 331.5,336.5 C 331.267,339.542 330.267,342.208 328.5,344.5C 328.733,341.458 329.733,338.792 331.5,336.5 Z"/></g>
<g><path style="opacity:0.278" fill="#1f1f20" d="M 238.5,342.5 C 240.404,342.738 241.738,343.738 242.5,345.5C 240.596,345.262 239.262,344.262 238.5,342.5 Z"/></g>
<g><path style="opacity:0.388" fill="#313131" d="M 328.5,344.5 C 328.598,346.553 327.931,348.22 326.5,349.5C 326.12,347.302 326.787,345.635 328.5,344.5 Z"/></g>
<g><path style="opacity:0.169" fill="#1c1c1c" d="M 242.5,345.5 C 244.749,346.08 246.415,347.413 247.5,349.5C 245.251,348.92 243.585,347.587 242.5,345.5 Z"/></g>
<g><path style="opacity:0.278" fill="#202020" d="M 247.5,349.5 C 249.404,349.738 250.738,350.738 251.5,352.5C 249.596,352.262 248.262,351.262 247.5,349.5 Z"/></g>
<g><path style="opacity:0.188" fill="#212121" d="M 326.5,349.5 C 326.02,352.443 325.02,355.11 323.5,357.5C 323.415,354.351 324.415,351.684 326.5,349.5 Z"/></g>
<g><path style="opacity:0.188" fill="#1e1f1f" d="M 251.5,352.5 C 253.749,353.08 255.415,354.413 256.5,356.5C 254.251,355.92 252.585,354.587 251.5,352.5 Z"/></g>
<g><path style="opacity:0.024" fill="#131313" d="M 181.5,354.5 C 180.415,356.587 178.749,357.92 176.5,358.5C 177.585,356.413 179.251,355.08 181.5,354.5 Z"/></g>
<g><path style="opacity:0.255" fill="#1e1e1f" d="M 256.5,356.5 C 258.404,356.738 259.738,357.738 260.5,359.5C 258.596,359.262 257.262,358.262 256.5,356.5 Z"/></g>
<g><path style="opacity:0.149" fill="#191919" d="M 260.5,359.5 C 262.749,360.08 264.415,361.413 265.5,363.5C 263.251,362.92 261.585,361.587 260.5,359.5 Z"/></g>
<g><path style="opacity:0.212" fill="#1d1d1d" d="M 265.5,363.5 C 267.027,363.427 268.027,364.094 268.5,365.5C 266.973,365.573 265.973,364.906 265.5,363.5 Z"/></g>
<g><path style="opacity:0.118" fill="#191919" d="M 323.5,357.5 C 321.403,364.47 318.737,371.136 315.5,377.5C 317.094,370.325 319.761,363.659 323.5,357.5 Z"/></g>
<g><path style="opacity:0.165" fill="#1c1c1c" d="M 268.5,365.5 C 270.749,366.08 272.415,367.413 273.5,369.5C 271.251,368.92 269.585,367.587 268.5,365.5 Z"/></g>
<g><path style="opacity:0.259" fill="#212121" d="M 273.5,369.5 C 274.167,369.5 274.833,369.5 275.5,369.5C 276.167,370.5 276.833,371.5 277.5,372.5C 275.596,372.262 274.262,371.262 273.5,369.5 Z"/></g>
<g><path style="opacity:1" fill="#888989" d="M 182.5,352.5 C 182.167,353.167 181.833,353.833 181.5,354.5C 179.251,355.08 177.585,356.413 176.5,358.5C 163.374,369.446 150.041,380.279 136.5,391C 131.965,395.703 127.298,400.203 122.5,404.5C 118.888,405.076 115.888,404.076 113.5,401.5C 113.552,399.097 113.219,396.764 112.5,394.5C 113.5,394.833 114.167,395.5 114.5,396.5C 114.369,397.376 114.702,398.043 115.5,398.5C 134.999,384.161 154.332,369.661 173.5,355C 176.312,353.451 179.312,352.618 182.5,352.5 Z"/></g>
<g><path style="opacity:0.333" fill="#232323" d="M 277.5,372.5 C 280.764,374.094 283.431,376.427 285.5,379.5C 282.236,377.906 279.569,375.573 277.5,372.5 Z"/></g>
<g><path style="opacity:0.192" fill="#191919" d="M 285.5,379.5 C 287.027,379.427 288.027,380.094 288.5,381.5C 286.973,381.573 285.973,380.906 285.5,379.5 Z"/></g>
<g><path style="opacity:0.098" fill="#151515" d="M 176.5,358.5 C 159.624,375.254 141.624,390.587 122.5,404.5C 127.298,400.203 131.965,395.703 136.5,391C 150.041,380.279 163.374,369.446 176.5,358.5 Z"/></g>
<g><path style="opacity:0.341" fill="#262727" d="M 288.5,381.5 C 290.404,381.738 291.738,382.738 292.5,384.5C 290.596,384.262 289.262,383.262 288.5,381.5 Z"/></g>
<g><path style="opacity:0.212" fill="#1f1f20" d="M 292.5,384.5 C 295.427,385.757 297.761,387.757 299.5,390.5C 296.573,389.243 294.239,387.243 292.5,384.5 Z"/></g>
<g><path style="opacity:0.169" fill="#222323" d="M 315.5,377.5 C 314.502,383.816 312.168,389.482 308.5,394.5C 309.901,391.296 310.901,387.963 311.5,384.5C 312.461,381.945 313.794,379.612 315.5,377.5 Z"/></g>
<g><path style="opacity:0.427" fill="#212121" d="M 299.5,390.5 C 301.544,391.031 303.211,392.198 304.5,394C 305.793,394.49 307.127,394.657 308.5,394.5C 307.796,396.344 306.463,396.844 304.5,396C 302.627,394.296 300.96,392.463 299.5,390.5 Z"/></g>
<g><path style="opacity:0.086" fill="#1b1b1b" d="M 113.5,401.5 C 115.888,404.076 118.888,405.076 122.5,404.5C 118.225,407.677 115.225,406.677 113.5,401.5 Z"/></g>
</svg>
